<svg xmlns="http://www.w3.org/2000/svg" viewBox="0 0 2400 1350">
  <defs>
    <linearGradient id="sky" x2="0" y2="1">
      <stop stop-color="#dcecf4"/><stop offset=".48" stop-color="#f5e6dc"/><stop offset="1" stop-color="#f7c7a4"/>
    </linearGradient>
    <linearGradient id="water" x2="0" y2="1">
      <stop stop-color="#829da7"/><stop offset="1" stop-color="#334f60"/>
    </linearGradient>
    <linearGradient id="bridge" x2="0" y2="1">
      <stop stop-color="#ed7959"/><stop offset="1" stop-color="#a9433e"/>
    </linearGradient>
  </defs>
  <rect width="2400" height="1350" fill="url(#sky)"/>
  <circle cx="1810" cy="350" r="118" fill="#fff4de" opacity=".72"/>
  <path d="M0 920 Q500 855 980 930 T1800 900 T2400 915 V1350 H0Z" fill="url(#water)"/>
  <path d="M0 1000 Q550 960 1100 1010 T2400 985" fill="none" stroke="#d9e2dc" stroke-width="5" opacity=".34"/>
  <path d="M0 780 L250 715 520 755 760 680 1060 735 1310 690 1530 735 1800 685 2080 740 2400 685 V930 H0Z" fill="#657983" opacity=".72"/>
  <path d="M180 806 H2220 M460 806 V485 M1940 806 V485 M460 500 C780 940 1620 940 1940 500" fill="none" stroke="url(#bridge)" stroke-width="30"/>
  <path d="M495 530 V806 M600 596 V806 M705 651 V806 M810 695 V806 M915 725 V806 M1020 744 V806 M1125 754 V806 M1275 754 V806 M1380 744 V806 M1485 725 V806 M1590 695 V806 M1695 651 V806 M1800 596 V806 M1905 530 V806" stroke="#c45a49" stroke-width="9" opacity=".8"/>
  <path d="M0 1120 Q560 1090 1200 1130 T2400 1110" fill="none" stroke="#d9e2dc" stroke-width="4" opacity=".2"/>
</svg>
